<svg width="39" height="20" viewBox="0 0 39 20" fill="none" xmlns="http://www.w3.org/2000/svg">
<path d="M9.218 19.364C6.514 19.364 4.408 18.6273 2.9 17.154C1.40933 15.6807 0.664 13.592 0.664 10.888V0.799999H5.812V10.732C5.812 13.644 6.96467 15.1 9.27 15.1C11.558 15.1 12.702 13.644 12.702 10.732V0.799999H17.772V10.888C17.772 13.592 17.018 15.6807 15.51 17.154C14.0193 18.6273 11.922 19.364 9.218 19.364Z" fill="black"/>
<path d="M30.0995 0.799999C31.7461 0.799999 33.1761 1.07733 34.3895 1.632C35.6028 2.16933 36.5388 2.94933 37.1975 3.972C37.8561 4.97733 38.1855 6.16467 38.1855 7.534C38.1855 8.90333 37.8561 10.0907 37.1975 11.096C36.5388 12.1013 35.6028 12.8813 34.3895 13.436C33.1761 13.9733 31.7461 14.242 30.0995 14.242H26.9275V19H21.7795V0.799999H30.0995ZM29.7875 10.186C30.8448 10.186 31.6421 9.96067 32.1795 9.51C32.7168 9.042 32.9855 8.38333 32.9855 7.534C32.9855 6.68467 32.7168 6.026 32.1795 5.558C31.6421 5.09 30.8448 4.856 29.7875 4.856H26.9275V10.186H29.7875Z" fill="#2696E8"/>
</svg>
