<svg width="249" height="16" viewBox="0 0 249 16" fill="none" xmlns="http://www.w3.org/2000/svg">
<path d="M7.24951 16C4.9626 16 3.17881 15.3783 1.89814 14.1348C0.632712 12.8914 0 11.1161 0 8.80899V0H3.7048V8.67416C3.7048 11.4906 4.89399 12.8989 7.27238 12.8989C8.43109 12.8989 9.31536 12.5618 9.9252 11.8876C10.535 11.1985 10.84 10.1273 10.84 8.67416V0H14.499V8.80899C14.499 11.1161 13.8587 12.8914 12.578 14.1348C11.3126 15.3783 9.53643 16 7.24951 16Z" fill="white"/>
<path d="M33.2994 0V15.7303H30.2578L22.2765 6.17978V15.7303H18.6174V0H21.6819L29.6404 9.55056V0H33.2994Z" fill="white"/>
<path d="M37.5443 0H41.2491V15.7303H37.5443V0Z" fill="white"/>
<path d="M48.8217 2.96629H43.699V0H57.6491V2.96629H52.5265V15.7303H48.8217V2.96629Z" fill="white"/>
<path d="M72.495 12.809V15.7303H60.0999V0H72.1977V2.92135H63.7818V6.33708H71.2143V9.16854H63.7818V12.809H72.495Z" fill="white"/>
<path d="M75.9001 0H83.1725C84.9106 0 86.4428 0.329588 87.7692 0.988765C89.1109 1.63296 90.1476 2.54682 90.8794 3.73034C91.6265 4.91386 92 6.29214 92 7.86517C92 9.4382 91.6265 10.8165 90.8794 12C90.1476 13.1835 89.1109 14.1049 87.7692 14.764C86.4428 15.4082 84.9106 15.7303 83.1725 15.7303H75.9001V0ZM82.9896 12.7416C84.5904 12.7416 85.8635 12.3071 86.8087 11.4382C87.7692 10.5543 88.2495 9.3633 88.2495 7.86517C88.2495 6.36704 87.7692 5.18352 86.8087 4.31461C85.8635 3.43071 84.5904 2.98876 82.9896 2.98876H79.6049V12.7416H82.9896Z" fill="white"/>
<path d="M102.373 0.265193C103.779 0.265193 104.997 0.493554 106.025 0.950276C107.068 1.407 107.87 2.05525 108.429 2.89503C108.989 3.73481 109.269 4.72928 109.269 5.87845C109.269 7.01289 108.989 8.00737 108.429 8.86188C107.87 9.70166 107.068 10.3499 106.025 10.8066C104.997 11.2486 103.779 11.4696 102.373 11.4696H99.1747V15.7348H95.5V0.265193H102.373ZM102.169 8.55249C103.273 8.55249 104.112 8.32413 104.687 7.8674C105.261 7.39595 105.549 6.73296 105.549 5.87845C105.549 5.00921 105.261 4.34623 104.687 3.8895C104.112 3.41805 103.273 3.18232 102.169 3.18232H99.1747V8.55249H102.169Z" fill="white" fill-opacity="0.5"/>
<path d="M122.463 15.7348L119.4 11.4254H119.219H116.02V15.7348H112.346V0.265193H119.219C120.625 0.265193 121.842 0.493554 122.871 0.950276C123.914 1.407 124.716 2.05525 125.275 2.89503C125.835 3.73481 126.114 4.72928 126.114 5.87845C126.114 7.02762 125.827 8.0221 125.253 8.86188C124.693 9.68692 123.892 10.3204 122.848 10.7624L126.409 15.7348H122.463ZM122.394 5.87845C122.394 5.00921 122.107 4.34623 121.532 3.8895C120.958 3.41805 120.119 3.18232 119.015 3.18232H116.02V8.57459H119.015C120.119 8.57459 120.958 8.33886 121.532 7.8674C122.107 7.39595 122.394 6.73296 122.394 5.87845Z" fill="white" fill-opacity="0.5"/>
<path d="M137.169 16C135.521 16 134.031 15.6538 132.701 14.9613C131.385 14.2689 130.349 13.3186 129.593 12.1105C128.852 10.8877 128.482 9.5175 128.482 8C128.482 6.4825 128.852 5.11971 129.593 3.9116C130.349 2.68877 131.385 1.73112 132.701 1.03867C134.031 0.346225 135.521 0 137.169 0C138.817 0 140.299 0.346225 141.615 1.03867C142.931 1.73112 143.967 2.68877 144.723 3.9116C145.479 5.11971 145.857 6.4825 145.857 8C145.857 9.5175 145.479 10.8877 144.723 12.1105C143.967 13.3186 142.931 14.2689 141.615 14.9613C140.299 15.6538 138.817 16 137.169 16ZM137.169 12.9503C138.107 12.9503 138.954 12.744 139.71 12.3315C140.466 11.9042 141.056 11.3149 141.479 10.5635C141.918 9.81215 142.137 8.95764 142.137 8C142.137 7.04236 141.918 6.18785 141.479 5.43646C141.056 4.68508 140.466 4.10313 139.71 3.69061C138.954 3.26335 138.107 3.04972 137.169 3.04972C136.232 3.04972 135.385 3.26335 134.629 3.69061C133.873 4.10313 133.275 4.68508 132.837 5.43646C132.413 6.18785 132.202 7.04236 132.202 8C132.202 8.95764 132.413 9.81215 132.837 10.5635C133.275 11.3149 133.873 11.9042 134.629 12.3315C135.385 12.744 136.232 12.9503 137.169 12.9503Z" fill="white" fill-opacity="0.5"/>
<path d="M155.945 0.265193C157.352 0.265193 158.569 0.493554 159.597 0.950276C160.641 1.407 161.442 2.05525 162.002 2.89503C162.561 3.73481 162.841 4.72928 162.841 5.87845C162.841 7.01289 162.561 8.00737 162.002 8.86188C161.442 9.70166 160.641 10.3499 159.597 10.8066C158.569 11.2486 157.352 11.4696 155.945 11.4696H152.747V15.7348H149.072V0.265193H155.945ZM155.741 8.55249C156.845 8.55249 157.684 8.32413 158.259 7.8674C158.834 7.39595 159.121 6.73296 159.121 5.87845C159.121 5.00921 158.834 4.34623 158.259 3.8895C157.684 3.41805 156.845 3.18232 155.741 3.18232H152.747V8.55249H155.741Z" fill="white" fill-opacity="0.5"/>
<path d="M178.212 12.8619V15.7348H165.918V0.265193H177.917V3.13812H169.57V6.49724H176.942V9.28177H169.57V12.8619H178.212Z" fill="white" fill-opacity="0.5"/>
<path d="M191.706 15.7348L188.644 11.4254H188.463H185.264V15.7348H181.59V0.265193H188.463C189.869 0.265193 191.086 0.493554 192.115 0.950276C193.158 1.407 193.96 2.05525 194.519 2.89503C195.079 3.73481 195.358 4.72928 195.358 5.87845C195.358 7.02762 195.071 8.0221 194.496 8.86188C193.937 9.68692 193.135 10.3204 192.092 10.7624L195.653 15.7348H191.706ZM191.638 5.87845C191.638 5.00921 191.351 4.34623 190.776 3.8895C190.202 3.41805 189.363 3.18232 188.259 3.18232H185.264V8.57459H188.259C189.363 8.57459 190.202 8.33886 190.776 7.8674C191.351 7.39595 191.638 6.73296 191.638 5.87845Z" fill="white" fill-opacity="0.5"/>
<path d="M201.791 3.18232H196.71V0.265193H210.547V3.18232H205.466V15.7348H201.791V3.18232Z" fill="white" fill-opacity="0.5"/>
<path d="M212.978 0.265193H216.652V15.7348H212.978V0.265193Z" fill="white" fill-opacity="0.5"/>
<path d="M233.168 12.8619V15.7348H220.874V0.265193H232.874V3.13812H224.526V6.49724H231.898V9.28177H224.526V12.8619H233.168Z" fill="white" fill-opacity="0.5"/>
<path d="M241.763 16C240.508 16 239.291 15.8379 238.111 15.5138C236.947 15.175 236.009 14.7403 235.298 14.2099L236.546 11.5138C237.226 12 238.035 12.3904 238.973 12.6851C239.911 12.9797 240.848 13.1271 241.786 13.1271C242.829 13.1271 243.6 12.9797 244.099 12.6851C244.598 12.3757 244.848 11.9705 244.848 11.4696C244.848 11.1013 244.697 10.7993 244.394 10.5635C244.107 10.3131 243.729 10.1142 243.26 9.96685C242.807 9.81952 242.187 9.65746 241.4 9.48066C240.19 9.20074 239.2 8.92081 238.429 8.64088C237.657 8.36096 236.992 7.9116 236.433 7.29282C235.888 6.67403 235.616 5.84899 235.616 4.81768C235.616 3.91897 235.865 3.10866 236.365 2.38674C236.864 1.65009 237.612 1.06814 238.61 0.640884C239.623 0.213628 240.856 0 242.307 0C243.321 0 244.311 0.117864 245.279 0.353591C246.247 0.589319 247.094 0.928177 247.82 1.37017L246.685 4.0884C245.219 3.27808 243.752 2.87293 242.285 2.87293C241.257 2.87293 240.493 3.03499 239.994 3.35912C239.51 3.68324 239.268 4.1105 239.268 4.64088C239.268 5.17127 239.548 5.56906 240.107 5.83425C240.682 6.08471 241.551 6.33518 242.716 6.58564C243.926 6.86556 244.916 7.14549 245.687 7.42541C246.459 7.70534 247.116 8.14733 247.661 8.75138C248.22 9.35543 248.5 10.1731 248.5 11.2044C248.5 12.0884 248.243 12.8987 247.729 13.6354C247.23 14.3573 246.474 14.9319 245.46 15.3591C244.447 15.7864 243.215 16 241.763 16Z" fill="white" fill-opacity="0.5"/>
</svg>
