<svg width="33" height="26" viewBox="0 0 33 26" fill="none" xmlns="http://www.w3.org/2000/svg">
<g filter="url(#filter0_d)">
<path d="M5.37218 18C4.45739 15.3333 4 12.6889 4 10.0667C4 7.04444 4.7841 4.62222 6.35231 2.8C7.92052 0.933334 10.2075 0 13.2132 0V4.2C10.9045 4.2 9.75009 5.71111 9.75009 8.73334V9.73333H13.932V18H5.37218Z" fill="#2696E8"/>
<path d="M20.4402 18C19.5254 15.3333 19.068 12.6889 19.068 10.0667C19.068 7.04444 19.8521 4.62222 21.4203 2.8C22.9885 0.933334 25.2755 0 28.2812 0V4.2C25.9725 4.2 24.8181 5.71111 24.8181 8.73334V9.73333H29V18H20.4402Z" fill="#2696E8"/>
</g>
<defs>
<filter id="filter0_d" x="0" y="0" width="33" height="26" filterUnits="userSpaceOnUse" color-interpolation-filters="sRGB">
<feFlood flood-opacity="0" result="BackgroundImageFix"/>
<feColorMatrix in="SourceAlpha" type="matrix" values="0 0 0 0 0 0 0 0 0 0 0 0 0 0 0 0 0 0 127 0"/>
<feOffset dy="4"/>
<feGaussianBlur stdDeviation="2"/>
<feColorMatrix type="matrix" values="0 0 0 0 0 0 0 0 0 0 0 0 0 0 0 0 0 0 0.25 0"/>
<feBlend mode="normal" in2="BackgroundImageFix" result="effect1_dropShadow"/>
<feBlend mode="normal" in="SourceGraphic" in2="effect1_dropShadow" result="shape"/>
</filter>
</defs>
</svg>
